<mxfile host="Electron" modified="2024-07-24T06:12:46.981Z" agent="Mozilla/5.0 (Windows NT 10.0; Win64; x64) AppleWebKit/537.36 (KHTML, like Gecko) draw.io/22.1.21 Chrome/120.0.6099.109 Electron/28.1.0 Safari/537.36" etag="82p_BmyOu9ckIDUNNEGf" version="22.1.21" type="device">
  <diagram name="Page-1" id="azc2-ThuC2YT-2fPCF3p">
    <mxGraphModel dx="1050" dy="638" grid="1" gridSize="10" guides="1" tooltips="1" connect="1" arrows="1" fold="1" page="1" pageScale="1" pageWidth="3300" pageHeight="4681" math="0" shadow="0">
      <root>
        <mxCell id="0" />
        <mxCell id="1" parent="0" />
        <mxCell id="arF1o24mGjveasYSjzpN-1" value="WriterOperator" style="rounded=0;whiteSpace=wrap;html=1;verticalAlign=top;" parent="1" vertex="1">
          <mxGeometry x="30" y="194" width="300" height="176" as="geometry" />
        </mxCell>
        <mxCell id="arF1o24mGjveasYSjzpN-2" value="RMQChannelOutputPort" style="rounded=0;whiteSpace=wrap;html=1;verticalAlign=top;" parent="1" vertex="1">
          <mxGeometry x="180" y="254" width="150" height="106" as="geometry" />
        </mxCell>
        <mxCell id="PMBBGVUYhLA7eJ7IrGyf-21" style="edgeStyle=orthogonalEdgeStyle;rounded=0;orthogonalLoop=1;jettySize=auto;html=1;entryX=0;entryY=0.5;entryDx=0;entryDy=0;exitX=1;exitY=0.5;exitDx=0;exitDy=0;" parent="1" source="Uij172k2QEWIRrBp3P3e-1" target="PMBBGVUYhLA7eJ7IrGyf-8" edge="1">
          <mxGeometry relative="1" as="geometry" />
        </mxCell>
        <mxCell id="arF1o24mGjveasYSjzpN-3" value="RMQChannelWriter" style="rounded=0;whiteSpace=wrap;html=1;" parent="1" vertex="1">
          <mxGeometry x="220" y="284" width="110" height="30" as="geometry" />
        </mxCell>
        <mxCell id="arF1o24mGjveasYSjzpN-19" value="ReaderOperator" style="rounded=0;whiteSpace=wrap;html=1;verticalAlign=top;" parent="1" vertex="1">
          <mxGeometry x="680" y="75" width="300" height="140" as="geometry" />
        </mxCell>
        <mxCell id="arF1o24mGjveasYSjzpN-20" value="RMQChannelInputPort" style="rounded=0;whiteSpace=wrap;html=1;verticalAlign=top;" parent="1" vertex="1">
          <mxGeometry x="680" y="135" width="150" height="70" as="geometry" />
        </mxCell>
        <mxCell id="arF1o24mGjveasYSjzpN-21" value="RMQChannelReader" style="rounded=0;whiteSpace=wrap;html=1;" parent="1" vertex="1">
          <mxGeometry x="680" y="165" width="130" height="30" as="geometry" />
        </mxCell>
        <mxCell id="arF1o24mGjveasYSjzpN-22" value="ReaderOperator_0" style="rounded=0;whiteSpace=wrap;html=1;verticalAlign=top;" parent="1" vertex="1">
          <mxGeometry x="680" y="235" width="300" height="140" as="geometry" />
        </mxCell>
        <mxCell id="arF1o24mGjveasYSjzpN-23" value="RMQChannelInputPort" style="rounded=0;whiteSpace=wrap;html=1;verticalAlign=top;" parent="1" vertex="1">
          <mxGeometry x="680" y="295" width="150" height="70" as="geometry" />
        </mxCell>
        <mxCell id="arF1o24mGjveasYSjzpN-25" value="ReaderOperator_1" style="rounded=0;whiteSpace=wrap;html=1;verticalAlign=top;" parent="1" vertex="1">
          <mxGeometry x="680" y="395" width="300" height="140" as="geometry" />
        </mxCell>
        <mxCell id="arF1o24mGjveasYSjzpN-26" value="RMQChannelInputPort" style="rounded=0;whiteSpace=wrap;html=1;verticalAlign=top;" parent="1" vertex="1">
          <mxGeometry x="680" y="455" width="150" height="70" as="geometry" />
        </mxCell>
        <mxCell id="arF1o24mGjveasYSjzpN-28" value="Data Queue" style="rounded=0;whiteSpace=wrap;html=1;verticalAlign=top;" parent="1" vertex="1">
          <mxGeometry x="390" y="259" width="240" height="71" as="geometry" />
        </mxCell>
        <mxCell id="TD1AO3fF2TYThikACMSl-7" style="edgeStyle=orthogonalEdgeStyle;rounded=0;orthogonalLoop=1;jettySize=auto;html=1;entryX=0;entryY=0.5;entryDx=0;entryDy=0;exitX=0.5;exitY=0;exitDx=0;exitDy=0;" parent="1" source="arF1o24mGjveasYSjzpN-41" target="arF1o24mGjveasYSjzpN-21" edge="1">
          <mxGeometry relative="1" as="geometry" />
        </mxCell>
        <mxCell id="arF1o24mGjveasYSjzpN-41" value="0" style="rounded=0;whiteSpace=wrap;html=1;verticalAlign=middle;" parent="1" vertex="1">
          <mxGeometry x="588" y="290" width="30" height="30" as="geometry" />
        </mxCell>
        <mxCell id="arF1o24mGjveasYSjzpN-45" style="edgeStyle=orthogonalEdgeStyle;rounded=0;orthogonalLoop=1;jettySize=auto;html=1;entryX=-0.006;entryY=0.557;entryDx=0;entryDy=0;entryPerimeter=0;" parent="1" source="arF1o24mGjveasYSjzpN-3" target="arF1o24mGjveasYSjzpN-28" edge="1">
          <mxGeometry relative="1" as="geometry" />
        </mxCell>
        <mxCell id="TD1AO3fF2TYThikACMSl-8" style="edgeStyle=orthogonalEdgeStyle;rounded=0;orthogonalLoop=1;jettySize=auto;html=1;entryX=0;entryY=0.5;entryDx=0;entryDy=0;exitX=0.5;exitY=1;exitDx=0;exitDy=0;" parent="1" source="TD1AO3fF2TYThikACMSl-1" target="3seudr_W8ZQ7AQd-EMNS-1" edge="1">
          <mxGeometry relative="1" as="geometry">
            <mxPoint x="680" y="340" as="targetPoint" />
          </mxGeometry>
        </mxCell>
        <mxCell id="TD1AO3fF2TYThikACMSl-1" value="1" style="rounded=0;whiteSpace=wrap;html=1;verticalAlign=middle;" parent="1" vertex="1">
          <mxGeometry x="558" y="290" width="30" height="30" as="geometry" />
        </mxCell>
        <mxCell id="TD1AO3fF2TYThikACMSl-9" style="edgeStyle=orthogonalEdgeStyle;rounded=0;orthogonalLoop=1;jettySize=auto;html=1;entryX=0;entryY=0.5;entryDx=0;entryDy=0;exitX=0.5;exitY=1;exitDx=0;exitDy=0;" parent="1" source="TD1AO3fF2TYThikACMSl-2" target="3seudr_W8ZQ7AQd-EMNS-2" edge="1">
          <mxGeometry relative="1" as="geometry">
            <mxPoint x="680" y="500" as="targetPoint" />
          </mxGeometry>
        </mxCell>
        <mxCell id="TD1AO3fF2TYThikACMSl-2" value="2" style="rounded=0;whiteSpace=wrap;html=1;verticalAlign=middle;" parent="1" vertex="1">
          <mxGeometry x="528" y="290" width="30" height="30" as="geometry" />
        </mxCell>
        <mxCell id="TD1AO3fF2TYThikACMSl-3" value="3" style="rounded=0;whiteSpace=wrap;html=1;verticalAlign=middle;" parent="1" vertex="1">
          <mxGeometry x="498" y="290" width="30" height="30" as="geometry" />
        </mxCell>
        <mxCell id="TD1AO3fF2TYThikACMSl-4" value="4" style="rounded=0;whiteSpace=wrap;html=1;verticalAlign=middle;" parent="1" vertex="1">
          <mxGeometry x="468" y="290" width="30" height="30" as="geometry" />
        </mxCell>
        <mxCell id="TD1AO3fF2TYThikACMSl-5" value="5" style="rounded=0;whiteSpace=wrap;html=1;verticalAlign=middle;" parent="1" vertex="1">
          <mxGeometry x="438" y="290" width="30" height="30" as="geometry" />
        </mxCell>
        <mxCell id="TD1AO3fF2TYThikACMSl-6" value="6" style="rounded=0;whiteSpace=wrap;html=1;verticalAlign=middle;" parent="1" vertex="1">
          <mxGeometry x="408" y="290" width="30" height="30" as="geometry" />
        </mxCell>
        <mxCell id="3seudr_W8ZQ7AQd-EMNS-1" value="RMQChannelReader" style="rounded=0;whiteSpace=wrap;html=1;" parent="1" vertex="1">
          <mxGeometry x="680" y="325" width="130" height="30" as="geometry" />
        </mxCell>
        <mxCell id="3seudr_W8ZQ7AQd-EMNS-2" value="RMQChannelReader" style="rounded=0;whiteSpace=wrap;html=1;" parent="1" vertex="1">
          <mxGeometry x="680" y="485" width="130" height="30" as="geometry" />
        </mxCell>
        <mxCell id="PMBBGVUYhLA7eJ7IrGyf-1" value="OtherReaderOperator" style="rounded=0;whiteSpace=wrap;html=1;verticalAlign=top;" parent="1" vertex="1">
          <mxGeometry x="680" y="610" width="300" height="140" as="geometry" />
        </mxCell>
        <mxCell id="PMBBGVUYhLA7eJ7IrGyf-2" value="RMQChannelInputPort" style="rounded=0;whiteSpace=wrap;html=1;verticalAlign=top;" parent="1" vertex="1">
          <mxGeometry x="680" y="670" width="150" height="70" as="geometry" />
        </mxCell>
        <mxCell id="PMBBGVUYhLA7eJ7IrGyf-3" value="RMQChannelReader" style="rounded=0;whiteSpace=wrap;html=1;" parent="1" vertex="1">
          <mxGeometry x="680" y="700" width="130" height="30" as="geometry" />
        </mxCell>
        <mxCell id="PMBBGVUYhLA7eJ7IrGyf-4" value="OtherReaderOperator_0" style="rounded=0;whiteSpace=wrap;html=1;verticalAlign=top;" parent="1" vertex="1">
          <mxGeometry x="680" y="770" width="300" height="140" as="geometry" />
        </mxCell>
        <mxCell id="PMBBGVUYhLA7eJ7IrGyf-5" value="RMQChannelInputPort" style="rounded=0;whiteSpace=wrap;html=1;verticalAlign=top;" parent="1" vertex="1">
          <mxGeometry x="680" y="830" width="150" height="70" as="geometry" />
        </mxCell>
        <mxCell id="PMBBGVUYhLA7eJ7IrGyf-6" value="OtherReaderOperator_1" style="rounded=0;whiteSpace=wrap;html=1;verticalAlign=top;" parent="1" vertex="1">
          <mxGeometry x="680" y="930" width="300" height="140" as="geometry" />
        </mxCell>
        <mxCell id="PMBBGVUYhLA7eJ7IrGyf-7" value="RMQChannelInputPort" style="rounded=0;whiteSpace=wrap;html=1;verticalAlign=top;" parent="1" vertex="1">
          <mxGeometry x="680" y="990" width="150" height="70" as="geometry" />
        </mxCell>
        <mxCell id="PMBBGVUYhLA7eJ7IrGyf-8" value="Data Queue" style="rounded=0;whiteSpace=wrap;html=1;verticalAlign=top;" parent="1" vertex="1">
          <mxGeometry x="390" y="794" width="240" height="71" as="geometry" />
        </mxCell>
        <mxCell id="PMBBGVUYhLA7eJ7IrGyf-9" style="edgeStyle=orthogonalEdgeStyle;rounded=0;orthogonalLoop=1;jettySize=auto;html=1;entryX=0;entryY=0.5;entryDx=0;entryDy=0;exitX=0.5;exitY=0;exitDx=0;exitDy=0;" parent="1" source="PMBBGVUYhLA7eJ7IrGyf-10" target="PMBBGVUYhLA7eJ7IrGyf-3" edge="1">
          <mxGeometry relative="1" as="geometry" />
        </mxCell>
        <mxCell id="PMBBGVUYhLA7eJ7IrGyf-10" value="0" style="rounded=0;whiteSpace=wrap;html=1;verticalAlign=middle;" parent="1" vertex="1">
          <mxGeometry x="588" y="825" width="30" height="30" as="geometry" />
        </mxCell>
        <mxCell id="PMBBGVUYhLA7eJ7IrGyf-11" style="edgeStyle=orthogonalEdgeStyle;rounded=0;orthogonalLoop=1;jettySize=auto;html=1;entryX=0;entryY=0.5;entryDx=0;entryDy=0;exitX=0.5;exitY=1;exitDx=0;exitDy=0;" parent="1" source="PMBBGVUYhLA7eJ7IrGyf-12" target="PMBBGVUYhLA7eJ7IrGyf-19" edge="1">
          <mxGeometry relative="1" as="geometry">
            <mxPoint x="680" y="875" as="targetPoint" />
          </mxGeometry>
        </mxCell>
        <mxCell id="PMBBGVUYhLA7eJ7IrGyf-12" value="1" style="rounded=0;whiteSpace=wrap;html=1;verticalAlign=middle;" parent="1" vertex="1">
          <mxGeometry x="558" y="825" width="30" height="30" as="geometry" />
        </mxCell>
        <mxCell id="PMBBGVUYhLA7eJ7IrGyf-13" style="edgeStyle=orthogonalEdgeStyle;rounded=0;orthogonalLoop=1;jettySize=auto;html=1;entryX=0;entryY=0.5;entryDx=0;entryDy=0;exitX=0.5;exitY=1;exitDx=0;exitDy=0;" parent="1" source="PMBBGVUYhLA7eJ7IrGyf-14" target="PMBBGVUYhLA7eJ7IrGyf-20" edge="1">
          <mxGeometry relative="1" as="geometry">
            <mxPoint x="680" y="1035" as="targetPoint" />
          </mxGeometry>
        </mxCell>
        <mxCell id="PMBBGVUYhLA7eJ7IrGyf-14" value="2" style="rounded=0;whiteSpace=wrap;html=1;verticalAlign=middle;" parent="1" vertex="1">
          <mxGeometry x="528" y="825" width="30" height="30" as="geometry" />
        </mxCell>
        <mxCell id="PMBBGVUYhLA7eJ7IrGyf-15" value="3" style="rounded=0;whiteSpace=wrap;html=1;verticalAlign=middle;" parent="1" vertex="1">
          <mxGeometry x="498" y="825" width="30" height="30" as="geometry" />
        </mxCell>
        <mxCell id="PMBBGVUYhLA7eJ7IrGyf-16" value="4" style="rounded=0;whiteSpace=wrap;html=1;verticalAlign=middle;" parent="1" vertex="1">
          <mxGeometry x="468" y="825" width="30" height="30" as="geometry" />
        </mxCell>
        <mxCell id="PMBBGVUYhLA7eJ7IrGyf-17" value="5" style="rounded=0;whiteSpace=wrap;html=1;verticalAlign=middle;" parent="1" vertex="1">
          <mxGeometry x="438" y="825" width="30" height="30" as="geometry" />
        </mxCell>
        <mxCell id="PMBBGVUYhLA7eJ7IrGyf-18" value="6" style="rounded=0;whiteSpace=wrap;html=1;verticalAlign=middle;" parent="1" vertex="1">
          <mxGeometry x="408" y="825" width="30" height="30" as="geometry" />
        </mxCell>
        <mxCell id="PMBBGVUYhLA7eJ7IrGyf-19" value="RMQChannelReader" style="rounded=0;whiteSpace=wrap;html=1;" parent="1" vertex="1">
          <mxGeometry x="680" y="860" width="130" height="30" as="geometry" />
        </mxCell>
        <mxCell id="PMBBGVUYhLA7eJ7IrGyf-20" value="RMQChannelReader" style="rounded=0;whiteSpace=wrap;html=1;" parent="1" vertex="1">
          <mxGeometry x="680" y="1020" width="130" height="30" as="geometry" />
        </mxCell>
        <mxCell id="Uij172k2QEWIRrBp3P3e-1" value="RMQChannelWriter" style="rounded=0;whiteSpace=wrap;html=1;" vertex="1" parent="1">
          <mxGeometry x="220" y="314" width="110" height="30" as="geometry" />
        </mxCell>
      </root>
    </mxGraphModel>
  </diagram>
</mxfile>
